<svg width="20" height="20" viewBox="0 0 20 20" fill="none" xmlns="http://www.w3.org/2000/svg">
<path d="M2.96824 9.25781H14.396L7.55613 3.32031C7.44675 3.22461 7.51316 3.04688 7.65769 3.04688H9.3862C9.46238 3.04688 9.53464 3.07422 9.59128 3.12305L16.9721 9.52734C17.0397 9.58594 17.094 9.65838 17.1311 9.73976C17.1683 9.82115 17.1875 9.90956 17.1875 9.99902C17.1875 10.0885 17.1683 10.1769 17.1311 10.2583C17.094 10.3397 17.0397 10.4121 16.9721 10.4707L9.54832 16.9141C9.51902 16.9395 9.48386 16.9531 9.44675 16.9531H7.65964C7.51511 16.9531 7.4487 16.7734 7.55808 16.6797L14.396 10.7422H2.96824C2.8823 10.7422 2.81199 10.6719 2.81199 10.5859V9.41406C2.81199 9.32812 2.8823 9.25781 2.96824 9.25781Z" fill="black"/>
</svg>
