<svg width="46" height="46" viewBox="0 0 46 46" fill="none" xmlns="http://www.w3.org/2000/svg">
<path d="M0.500309 20.625H37.0691L15.1816 1.625C14.8316 1.31875 15.0441 0.75 15.5066 0.75H21.0378C21.2816 0.75 21.5128 0.8375 21.6941 0.99375L45.3128 21.4875C45.5291 21.675 45.7026 21.9068 45.8215 22.1672C45.9404 22.4277 46.002 22.7106 46.002 22.9969C46.002 23.2832 45.9404 23.5661 45.8215 23.8265C45.7026 24.0869 45.5291 24.3187 45.3128 24.5062L21.5566 45.125C21.4628 45.2062 21.3503 45.25 21.2316 45.25H15.5128C15.0503 45.25 14.8378 44.675 15.1878 44.375L37.0691 25.375H0.500309C0.225307 25.375 0.00030899 25.15 0.00030899 24.875V21.125C0.00030899 20.85 0.225307 20.625 0.500309 20.625Z" fill="white"/>
</svg>
