<svg width="164" height="32" viewBox="0 0 164 32" fill="none" xmlns="http://www.w3.org/2000/svg">
<g clip-path="url(#clip0_3158_29392)">
<path d="M0 27.4727L3.85443 32L25.4328 13.6813L21.5855 9.16113L27.0486 4.52371L23.1977 0L4.05373 4.52726L1.61936 18.3187L0 27.4727ZM4.86519 5.29128L19.6352 1.80167L9.86918 10.0922H19.0408L4.86163 22.1246L1.37023 25.0883L4.86519 5.29128Z" fill="white"/>
<path d="M40.0604 22.9597V7.91382H42.4307C43.8045 7.91382 44.8117 8.00266 45.4452 8.18034C46.3492 8.41843 47.0646 8.86262 47.5984 9.50938C48.1323 10.1561 48.3992 10.9201 48.3992 11.8014C48.3992 12.3736 48.2782 12.8924 48.0362 13.3615C47.7942 13.8305 47.3991 14.2676 46.8546 14.6763C47.7693 15.1063 48.4384 15.6429 48.8619 16.2861C49.2854 16.9293 49.4954 17.6933 49.4954 18.571C49.4954 19.4487 49.2747 20.1879 48.837 20.8844C48.3992 21.5809 47.8369 22.0997 47.1465 22.4444C46.456 22.7891 45.5022 22.9597 44.285 22.9597H40.0604ZM42.929 10.6465V13.8163H43.5554C44.253 13.8163 44.7726 13.6706 45.1142 13.3757C45.4524 13.0843 45.6232 12.6827 45.6232 12.1781C45.6232 11.709 45.463 11.3359 45.1392 11.0587C44.8188 10.7816 44.3277 10.643 43.6693 10.643H42.929V10.6465ZM42.929 16.3749V20.2305H43.6479C44.8402 20.2305 45.641 20.0813 46.0574 19.7792C46.4702 19.4772 46.6802 19.0436 46.6802 18.4715C46.6802 17.8248 46.4382 17.313 45.9506 16.9364C45.463 16.5632 44.6551 16.3749 43.5269 16.3749H42.9326H42.929Z" fill="white"/>
<path d="M58.5603 13.3863L56.8306 15.1134C56.1259 14.4169 55.4888 14.0686 54.9158 14.0686C54.6026 14.0686 54.357 14.1361 54.1791 14.2676C54.0011 14.3991 53.9122 14.5661 53.9122 14.7615C53.9122 14.9108 53.9691 15.0494 54.083 15.1773C54.1969 15.3052 54.4745 15.4758 54.9194 15.6926L55.9444 16.2043C57.0228 16.7373 57.763 17.2775 58.1652 17.8318C58.5674 18.3862 58.7702 19.033 58.7702 19.7757C58.7702 20.7635 58.4072 21.588 57.6776 22.2489C56.9516 22.9099 55.9764 23.2404 54.7521 23.2404C53.1256 23.2404 51.8301 22.6079 50.8585 21.3392L52.5811 19.4665C52.9085 19.8503 53.2929 20.1559 53.7342 20.394C54.1755 20.6285 54.567 20.7458 54.9051 20.7458C55.2753 20.7458 55.5707 20.6569 55.7949 20.4793C56.0191 20.3016 56.133 20.099 56.133 19.8645C56.133 19.4345 55.7273 19.0152 54.9158 18.6065L53.9727 18.1375C52.1682 17.2313 51.2678 16.0941 51.2678 14.7296C51.2678 13.8483 51.6059 13.0985 52.2857 12.473C52.9655 11.8512 53.8339 11.5385 54.8945 11.5385C55.6169 11.5385 56.3003 11.6984 56.9373 12.0146C57.5744 12.3309 58.1154 12.7858 58.5603 13.3792V13.3863Z" fill="white"/>
<path d="M61.4323 7.729H64.2297V11.8298H65.8882V14.2321H64.2297V22.9561H61.4323V14.2321H59.998V11.8298H61.4323V7.729Z" fill="white"/>
<path d="M66.924 11.8334H69.7819L72.6753 18.8162L75.8713 11.8334H78.7364L71.7571 27.032H68.8707L71.1628 22.1317L66.9275 11.8334H66.924Z" fill="white"/>
<path d="M79.8539 7.53711H82.6513V22.9597H79.8539V7.53711Z" fill="white"/>
<path d="M95.8731 18.205H86.8901C87.0218 18.9974 87.3671 19.6264 87.9294 20.0919C88.4917 20.561 89.2106 20.792 90.0861 20.792C91.1325 20.792 92.0294 20.4259 92.7803 19.6975L95.1364 20.8026C94.5492 21.6342 93.8445 22.2489 93.0259 22.6469C92.2073 23.0449 91.2322 23.2439 90.1075 23.2439C88.36 23.2439 86.9364 22.6931 85.8367 21.5915C84.7369 20.4899 84.1888 19.1111 84.1888 17.4552C84.1888 15.7992 84.7369 14.3493 85.8331 13.2264C86.9293 12.1035 88.3031 11.542 89.958 11.542C91.7126 11.542 93.1398 12.1035 94.2395 13.2264C95.3393 14.3493 95.8874 15.8276 95.8874 17.6684L95.8767 18.2014L95.8731 18.205ZM93.0793 16.0053C92.8942 15.3834 92.5312 14.8788 91.9867 14.4915C91.4421 14.1041 90.8122 13.9087 90.0933 13.9087C89.3138 13.9087 88.6305 14.129 88.0397 14.5625C87.6696 14.8362 87.3279 15.3159 87.0147 16.0053H93.0793Z" fill="white"/>
<path d="M108.063 7.91382H110.942V17.8958C110.942 19.4843 110.814 20.6001 110.565 21.2397C110.312 21.8794 109.896 22.3911 109.316 22.7678C108.735 23.148 108.038 23.3364 107.226 23.3364C105.568 23.3364 104.155 22.6114 102.984 21.158L105.052 19.2249C105.507 19.7437 105.899 20.0919 106.219 20.2696C106.539 20.4473 106.849 20.5361 107.152 20.5361C107.454 20.5361 107.689 20.4082 107.839 20.1488C107.988 19.8894 108.063 19.3208 108.063 18.4395V7.91382Z" fill="white"/>
<path d="M121.822 11.8334H124.619V22.9597H121.822V21.7834C121.277 22.3022 120.729 22.6754 120.181 22.9028C119.633 23.1302 119.035 23.2439 118.395 23.2439C116.957 23.2439 115.711 22.686 114.661 21.5702C113.611 20.4544 113.085 19.0685 113.085 17.4125C113.085 15.7565 113.594 14.2854 114.608 13.1873C115.626 12.0892 116.857 11.542 118.313 11.542C118.982 11.542 119.608 11.6699 120.196 11.9222C120.783 12.1745 121.324 12.5512 121.822 13.0558V11.8298V11.8334ZM118.882 14.1219C118.017 14.1219 117.298 14.4275 116.729 15.0387C116.156 15.6499 115.871 16.4317 115.871 17.3876C115.871 18.3435 116.163 19.1395 116.743 19.7614C117.327 20.3833 118.042 20.6925 118.893 20.6925C119.744 20.6925 120.498 20.3869 121.078 19.7756C121.655 19.1644 121.947 18.3649 121.947 17.377C121.947 16.3891 121.658 15.6251 121.078 15.0245C120.502 14.4239 119.768 14.1254 118.882 14.1254V14.1219Z" fill="white"/>
<path d="M129.905 11.8334V13.0594C130.41 12.5547 130.958 12.1745 131.545 11.9258C132.133 11.6735 132.762 11.5455 133.432 11.5455C134.887 11.5455 136.122 12.0928 137.14 13.1908C138.158 14.2889 138.667 15.6961 138.667 17.416C138.667 19.136 138.14 20.4579 137.09 21.5737C136.037 22.6896 134.791 23.2475 133.35 23.2475C132.709 23.2475 132.111 23.1338 131.556 22.9063C131.004 22.6789 130.453 22.3058 129.908 21.787V27.032H127.132V11.8334H129.908H129.905ZM132.844 14.1219C131.962 14.1219 131.232 14.4239 130.652 15.0209C130.072 15.6215 129.78 16.4068 129.78 17.3734C129.78 18.34 130.072 19.1609 130.652 19.7721C131.232 20.3833 131.962 20.6889 132.844 20.6889C133.727 20.6889 134.417 20.3797 135.001 19.7579C135.585 19.136 135.877 18.3471 135.877 17.3841C135.877 16.421 135.588 15.6464 135.015 15.0351C134.442 14.4239 133.716 14.1183 132.844 14.1183V14.1219Z" fill="white"/>
<path d="M148.807 11.8334H151.604V22.9597H148.807V21.7834C148.262 22.3022 147.714 22.6754 147.166 22.9028C146.618 23.1302 146.02 23.2439 145.379 23.2439C143.941 23.2439 142.696 22.686 141.646 21.5702C140.596 20.4544 140.069 19.0685 140.069 17.4125C140.069 15.7565 140.578 14.2854 141.592 13.1873C142.61 12.0892 143.845 11.542 145.297 11.542C145.966 11.542 146.593 11.6699 147.18 11.9222C147.767 12.1745 148.308 12.5512 148.807 13.0558V11.8298V11.8334ZM145.867 14.1219C145.002 14.1219 144.283 14.4275 143.714 15.0387C143.141 15.6499 142.856 16.4317 142.856 17.3876C142.856 18.3435 143.148 19.1395 143.728 19.7614C144.308 20.3833 145.027 20.6925 145.877 20.6925C146.728 20.6925 147.483 20.3869 148.063 19.7756C148.639 19.1644 148.931 18.3649 148.931 17.377C148.931 16.3891 148.643 15.6251 148.063 15.0245C147.483 14.4239 146.753 14.1254 145.867 14.1254V14.1219Z" fill="white"/>
<path d="M154.113 11.8334H156.91V12.9741C157.544 12.441 158.121 12.0679 158.633 11.8618C159.149 11.6521 159.676 11.5491 160.213 11.5491C161.317 11.5491 162.256 11.9329 163.025 12.704C163.673 13.3578 163.996 14.328 163.996 15.6073V22.9596H161.231V18.0877C161.231 16.7586 161.171 15.8773 161.053 15.4402C160.932 15.0032 160.726 14.6727 160.43 14.4452C160.135 14.2178 159.768 14.1041 159.331 14.1041C158.765 14.1041 158.281 14.2924 157.875 14.6727C157.469 15.0494 157.188 15.5753 157.031 16.2398C156.95 16.5881 156.907 17.3414 156.907 18.4963V22.9596H154.109V11.8334H154.113Z" fill="white"/>
</g>
<defs>
<clipPath id="clip0_3158_29392">
<rect width="164" height="32" fill="white"/>
</clipPath>
</defs>
</svg>
