<svg width="205" height="40" viewBox="0 0 205 40" fill="none" xmlns="http://www.w3.org/2000/svg">
<g clip-path="url(#clip0_2149_12553)">
<path d="M0 34.3409L4.81803 40L31.791 17.1016L26.9819 11.4514L33.8108 5.65464L28.9972 0L5.06717 5.65908L2.0242 22.8984L0 34.3409ZM6.08149 6.6141L24.5439 2.25208L12.3365 12.6152H23.801L6.07704 27.6557L1.71278 31.3604L6.08149 6.6141Z" fill="url(#paint0_linear_2149_12553)"/>
<path d="M50.0762 28.6994V9.89209H53.0391C54.7563 9.89209 56.0153 10.0031 56.8072 10.2252C57.9372 10.5229 58.8314 11.0781 59.4987 11.8865C60.166 12.695 60.4997 13.65 60.4997 14.7516C60.4997 15.4668 60.3484 16.1153 60.0459 16.7016C59.7434 17.288 59.2496 17.8343 58.5689 18.3452C59.7122 18.8826 60.5486 19.5534 61.078 20.3574C61.6074 21.1614 61.8699 22.1164 61.8699 23.2136C61.8699 24.3107 61.5941 25.2347 61.0469 26.1053C60.4997 26.9759 59.7968 27.6245 58.9337 28.0553C58.0706 28.4862 56.8784 28.6994 55.3569 28.6994H50.0762ZM53.6619 13.308V17.2702H54.4449C55.3168 17.2702 55.9664 17.0881 56.3934 16.7194C56.8161 16.3552 57.0296 15.8532 57.0296 15.2225C57.0296 14.6361 56.8294 14.1697 56.4246 13.8232C56.0242 13.4768 55.4103 13.3035 54.5872 13.3035H53.6619V13.308ZM53.6619 20.4684V25.288H54.5605C56.0509 25.288 57.0519 25.1014 57.5724 24.7238C58.0884 24.3463 58.3509 23.8044 58.3509 23.0892C58.3509 22.2808 58.0484 21.6411 57.4389 21.1703C56.8294 20.7039 55.8196 20.4684 54.4093 20.4684H53.6663H53.6619Z" fill="#3E3A39"/>
<path d="M73.2014 16.7327L71.0393 18.8915C70.1584 18.0209 69.3621 17.5855 68.6458 17.5855C68.2543 17.5855 67.9474 17.6699 67.7249 17.8343C67.5025 17.9986 67.3913 18.2074 67.3913 18.4517C67.3913 18.6383 67.4625 18.8115 67.6048 18.9714C67.7472 19.1313 68.0942 19.3446 68.6503 19.6155L69.9315 20.2552C71.2795 20.9215 72.2049 21.5966 72.7076 22.2896C73.2103 22.9825 73.4639 23.791 73.4639 24.7194C73.4639 25.9542 73.0101 26.9848 72.0981 27.811C71.1905 28.6372 69.9716 29.0503 68.4412 29.0503C66.4081 29.0503 64.7887 28.2596 63.5742 26.6738L65.7274 24.3329C66.1367 24.8126 66.6172 25.1946 67.1688 25.4923C67.7205 25.7854 68.2099 25.932 68.6325 25.932C69.0952 25.932 69.4644 25.821 69.7447 25.5989C70.025 25.3768 70.1673 25.1236 70.1673 24.8304C70.1673 24.2929 69.6602 23.7688 68.6458 23.2579L67.4669 22.6716C65.2114 21.5389 64.0858 20.1175 64.0858 18.4117C64.0858 17.3101 64.5085 16.3729 65.3582 15.5911C66.2079 14.8137 67.2934 14.4229 68.6191 14.4229C69.5222 14.4229 70.3764 14.6227 71.1727 15.0181C71.9691 15.4134 72.6453 15.982 73.2014 16.7238V16.7327Z" fill="#3E3A39"/>
<path d="M76.7909 9.66113H80.2877V14.7872H82.3608V17.7899H80.2877V28.695H76.7909V17.7899H74.998V14.7872H76.7909V9.66113Z" fill="#3E3A39"/>
<path d="M83.6562 14.7915H87.2286L90.8455 23.52L94.8405 14.7915H98.4218L89.6977 33.7898H86.0897L88.9548 27.6644L83.6607 14.7915H83.6562Z" fill="#3E3A39"/>
<path d="M99.8184 9.42139H103.315V28.6996H99.8184V9.42139Z" fill="#3E3A39"/>
<path d="M119.842 22.7564H108.613C108.778 23.747 109.209 24.5332 109.912 25.1151C110.615 25.7015 111.514 25.9902 112.608 25.9902C113.916 25.9902 115.037 25.5327 115.976 24.6221L118.921 26.0035C118.187 27.0429 117.306 27.8114 116.283 28.3089C115.259 28.8064 114.04 29.0552 112.635 29.0552C110.45 29.0552 108.671 28.3667 107.296 26.9896C105.921 25.6126 105.236 23.8891 105.236 21.8192C105.236 19.7492 105.921 17.9369 107.292 16.5332C108.662 15.1296 110.379 14.4277 112.448 14.4277C114.641 14.4277 116.425 15.1296 117.8 16.5332C119.174 17.9369 119.859 19.7848 119.859 22.0857L119.846 22.752L119.842 22.7564ZM116.349 20.0069C116.118 19.2295 115.664 18.5988 114.984 18.1146C114.303 17.6304 113.516 17.3861 112.617 17.3861C111.643 17.3861 110.788 17.6615 110.05 18.2034C109.587 18.5454 109.16 19.1451 108.769 20.0069H116.349Z" fill="#3E3A39"/>
<path d="M135.079 9.89209H138.678V22.3696C138.678 24.3552 138.518 25.7499 138.206 26.5495C137.891 27.3491 137.37 27.9887 136.645 28.4596C135.92 28.9348 135.048 29.1703 134.033 29.1703C131.96 29.1703 130.194 28.2641 128.73 26.4473L131.315 24.0309C131.885 24.6794 132.374 25.1147 132.774 25.3368C133.175 25.5589 133.562 25.67 133.94 25.67C134.318 25.67 134.612 25.5101 134.799 25.1858C134.985 24.8616 135.079 24.1508 135.079 23.0492V9.89209Z" fill="#3E3A39"/>
<path d="M152.277 14.792H155.774V28.6998H152.277V27.2295C151.597 27.878 150.911 28.3444 150.226 28.6287C149.541 28.913 148.794 29.0552 147.993 29.0552C146.196 29.0552 144.639 28.3578 143.326 26.963C142.014 25.5682 141.355 23.8358 141.355 21.7659C141.355 19.6959 141.992 17.8569 143.26 16.4844C144.532 15.1118 146.071 14.4277 147.891 14.4277C148.727 14.4277 149.51 14.5876 150.244 14.903C150.978 15.2184 151.654 15.6893 152.277 16.32V14.7875V14.792ZM148.603 17.6526C147.521 17.6526 146.623 18.0346 145.911 18.7986C145.195 19.5627 144.839 20.5399 144.839 21.7348C144.839 22.9297 145.204 23.9247 145.929 24.702C146.658 25.4794 147.553 25.8658 148.616 25.8658C149.679 25.8658 150.622 25.4838 151.347 24.7198C152.068 23.9558 152.433 22.9563 152.433 21.7215C152.433 20.4866 152.073 19.5316 151.347 18.7809C150.627 18.0302 149.71 17.6571 148.603 17.6571V17.6526Z" fill="#3E3A39"/>
<path d="M162.382 14.7919V16.3244C163.013 15.6936 163.698 15.2184 164.433 14.9074C165.167 14.592 165.954 14.4321 166.79 14.4321C168.61 14.4321 170.154 15.1162 171.426 16.4888C172.698 17.8613 173.335 19.6204 173.335 21.7703C173.335 23.9202 172.676 25.5726 171.364 26.9674C170.047 28.3622 168.49 29.0596 166.688 29.0596C165.887 29.0596 165.14 28.9174 164.446 28.6331C163.756 28.3488 163.067 27.8824 162.386 27.2339V33.7903H158.916V14.7919H162.386H162.382ZM166.056 17.6526C164.953 17.6526 164.041 18.0301 163.316 18.7764C162.591 19.5271 162.226 20.5088 162.226 21.717C162.226 22.9252 162.591 23.9513 163.316 24.7153C164.041 25.4793 164.953 25.8613 166.056 25.8613C167.16 25.8613 168.023 25.4749 168.752 24.6975C169.482 23.9202 169.847 22.9341 169.847 21.7303C169.847 20.5265 169.486 19.5582 168.77 18.7941C168.054 18.0301 167.146 17.6481 166.056 17.6481V17.6526Z" fill="#3E3A39"/>
<path d="M186.01 14.792H189.506V28.6998H186.01V27.2295C185.329 27.878 184.644 28.3444 183.959 28.6287C183.274 28.913 182.526 29.0552 181.725 29.0552C179.928 29.0552 178.371 28.3578 177.059 26.963C175.746 25.5682 175.088 23.8358 175.088 21.7659C175.088 19.6959 175.724 17.8569 176.992 16.4844C178.264 15.1118 179.808 14.4277 181.623 14.4277C182.46 14.4277 183.243 14.5876 183.977 14.903C184.711 15.2184 185.387 15.6893 186.01 16.32V14.7875V14.792ZM182.335 17.6526C181.254 17.6526 180.355 18.0346 179.643 18.7986C178.927 19.5627 178.571 20.5399 178.571 21.7348C178.571 22.9297 178.936 23.9247 179.661 24.702C180.386 25.4794 181.285 25.8658 182.348 25.8658C183.412 25.8658 184.355 25.4838 185.08 24.7198C185.801 23.9558 186.165 22.9563 186.165 21.7215C186.165 20.4866 185.805 19.5316 185.08 18.7809C184.355 18.0302 183.443 17.6571 182.335 17.6571V17.6526Z" fill="#3E3A39"/>
<path d="M192.641 14.7919H196.138V16.2178C196.93 15.5515 197.65 15.0851 198.291 14.8274C198.936 14.5653 199.595 14.4365 200.266 14.4365C201.646 14.4365 202.82 14.9163 203.781 15.8802C204.591 16.6975 204.995 17.9101 204.995 19.5093V28.6997H201.539V22.6098C201.539 20.9485 201.463 19.8469 201.316 19.3005C201.165 18.7541 200.907 18.341 200.538 18.0567C200.169 17.7724 199.71 17.6303 199.163 17.6303C198.456 17.6303 197.851 17.8657 197.344 18.341C196.836 18.8119 196.485 19.4693 196.289 20.2999C196.187 20.7352 196.133 21.6769 196.133 23.1206V28.6997H192.637V14.7919H192.641Z" fill="#3E3A39"/>
</g>
<defs>
<linearGradient id="paint0_linear_2149_12553" x1="23.5697" y1="13.477" x2="2.94007" y2="23.8654" gradientUnits="userSpaceOnUse">
<stop stop-color="#F5DB47"/>
<stop offset="0.46" stop-color="#EA5F6B"/>
<stop offset="1" stop-color="#1274BC"/>
</linearGradient>
<clipPath id="clip0_2149_12553">
<rect width="205" height="40" fill="white"/>
</clipPath>
</defs>
</svg>
