<svg width="150" height="150" viewBox="0 0 150 150" fill="none" xmlns="http://www.w3.org/2000/svg">
<rect width="150" height="150" rx="75" fill="white"/>
<rect x="15" y="15" width="120" height="120" rx="60" fill="#1274BC"/>
<path d="M53.204 74.3C53.204 78.6547 54.124 82.488 55.964 85.8C57.8653 89.112 60.4107 91.688 63.6 93.528C66.7893 95.368 70.3467 96.288 74.272 96.288C78.2587 96.288 81.7853 95.4293 84.852 93.712C87.9187 91.9333 90.3107 89.48 92.028 86.352C93.7453 83.224 94.604 79.6053 94.604 75.496C94.604 71.3253 93.7453 67.5533 92.028 64.18C90.3107 60.8067 87.8573 58.108 84.668 56.084C81.54 54.06 77.8293 53.048 73.536 53.048C69.5493 53.048 66.0227 53.968 62.956 55.808C59.9507 57.648 57.5587 60.1627 55.78 63.352C54.0627 66.5413 53.204 70.1907 53.204 74.3ZM39.312 74.3C39.312 69.3933 40.1707 64.916 41.888 60.868C43.6053 56.7587 46.028 53.2013 49.156 50.196C52.284 47.1907 55.9027 44.8907 60.012 43.296C64.1827 41.64 68.6907 40.812 73.536 40.812C78.4427 40.812 82.9507 41.64 87.06 43.296C91.1693 44.8907 94.7267 47.1907 97.732 50.196C100.799 53.2013 103.16 56.7587 104.816 60.868C106.533 64.916 107.392 69.3933 107.392 74.3C107.392 79.1453 106.564 83.6533 104.908 87.824C103.252 91.9333 100.891 95.5213 97.824 98.588C94.8187 101.655 91.2613 104.047 87.152 105.764C83.0427 107.42 78.504 108.248 73.536 108.248C68.6293 108.248 64.0907 107.42 59.92 105.764C55.7493 104.047 52.1 101.655 48.972 98.588C45.9053 95.5213 43.5133 91.9333 41.796 87.824C40.14 83.6533 39.312 79.1453 39.312 74.3ZM69.488 78.9H83.748L113.648 107.328H99.02L69.488 78.9Z" fill="white"/>
</svg>
