<svg width="1919" height="1079" viewBox="0 0 1919 1079" fill="none" xmlns="http://www.w3.org/2000/svg">
<g clip-path="url(#clip0_2_2)">
<rect width="1919" height="1079" fill="white"/>
<rect x="-134" y="994.356" width="1584.1" height="55.487" transform="rotate(-43 -134 994.356)" fill="#D9D9D9"/>
<rect x="-134" y="994.356" width="1584.1" height="55.487" transform="rotate(-43 -134 994.356)" fill="url(#paint0_linear_2_2)"/>
<rect x="-144" y="967.356" width="1584.1" height="55.487" transform="rotate(-43 -144 967.356)" fill="url(#paint1_linear_2_2)"/>
<rect x="74" y="1092.6" width="1788.28" height="55.487" transform="rotate(-43 74 1092.6)" fill="url(#paint2_linear_2_2)"/>
<rect x="426" y="1173.6" width="1788.28" height="55.487" transform="rotate(-43 426 1173.6)" fill="url(#paint3_linear_2_2)"/>
<rect x="415" y="1101.6" width="1788.28" height="57.6893" transform="rotate(-43 415 1101.6)" fill="url(#paint4_linear_2_2)"/>
<rect x="732" y="1247.6" width="1788.28" height="57.6893" transform="rotate(-43 732 1247.6)" fill="#F2FF41"/>
<rect x="761" y="1330.6" width="1788.28" height="57.6893" transform="rotate(-43 761 1330.6)" fill="url(#paint5_linear_2_2)"/>
<rect x="642" y="1204.6" width="1788.28" height="57.6893" transform="rotate(-43 642 1204.6)" fill="url(#paint6_linear_2_2)"/>
<path d="M-319.241 879.602L988.622 -340L1008.29 -305.353L-299.569 914.248L-319.241 879.602Z" fill="#E3FD3C"/>
<rect x="635" y="1154.6" width="1788.28" height="26.1888" transform="rotate(-43 635 1154.6)" fill="#D9D9D9"/>
<rect width="1788.28" height="16.4786" transform="matrix(0.731354 -0.681998 -0.681998 -0.731354 642.238 1204.65)" fill="url(#paint7_linear_2_2)"/>
<rect x="278" y="1127.6" width="1788.28" height="48.626" transform="rotate(-43 278 1127.6)" fill="url(#paint8_linear_2_2)"/>
<rect x="631" y="1094.6" width="1788.28" height="48.626" transform="rotate(-43 631 1094.6)" fill="url(#paint9_linear_2_2)"/>
<rect x="282" y="1087.6" width="1788.28" height="26.1888" transform="rotate(-43 282 1087.6)" fill="url(#paint10_linear_2_2)"/>
<rect x="-62" y="1053.6" width="1788.28" height="43.72" transform="rotate(-43 -62 1053.6)" fill="url(#paint11_linear_2_2)"/>
<rect x="-311" y="930.602" width="1788.28" height="26.1888" transform="rotate(-43 -311 930.602)" fill="#E03CEB"/>
<rect x="-465" y="894.602" width="1788.28" height="26.1888" transform="rotate(-43 -465 894.602)" fill="#D9D9D9"/>
<rect x="-589" y="817.602" width="1788.28" height="64.3583" transform="rotate(-43 -589 817.602)" fill="#D9D9D9"/>
<rect x="-695" y="733.602" width="1788.28" height="64.3583" transform="rotate(-43 -695 733.602)" fill="#E6F390"/>
<rect x="-589" y="817.602" width="1788.28" height="58.8692" transform="rotate(-43 -589 817.602)" fill="#D9D9D9"/>
<rect x="-610" y="832.602" width="1788.28" height="58.8692" transform="rotate(-43 -610 832.602)" fill="#D9D9D9"/>
<rect x="-610" y="832.602" width="1788.28" height="58.8692" transform="rotate(-43 -610 832.602)" fill="#D9D9D9"/>
<rect x="-610" y="832.602" width="1788.28" height="58.8692" transform="rotate(-43 -610 832.602)" fill="url(#paint12_linear_2_2)"/>
<rect x="-626" y="768.602" width="1788.28" height="58.8692" transform="rotate(-43 -626 768.602)" fill="#CE39D9"/>
<rect x="-610" y="734.602" width="1788.28" height="11.2025" transform="rotate(-43 -610 734.602)" fill="url(#paint13_linear_2_2)"/>
<rect x="-713.947" y="747.514" width="1788.28" height="21.9972" transform="rotate(-43 -713.947 747.514)" fill="url(#paint14_radial_2_2)"/>
<rect x="-570" y="884.602" width="1788.28" height="58.8692" transform="rotate(-43 -570 884.602)" fill="url(#paint15_linear_2_2)"/>
<rect x="-366" y="1098.6" width="1788.28" height="58.8692" transform="rotate(-43 -366 1098.6)" fill="url(#paint16_linear_2_2)"/>
<rect x="-385" y="1034.6" width="1788.28" height="58.8692" transform="rotate(-43 -385 1034.6)" fill="url(#paint17_linear_2_2)"/>
<rect x="94" y="1143.6" width="1788.28" height="67.6341" transform="rotate(-43 94 1143.6)" fill="url(#paint18_linear_2_2)"/>
<rect x="339" y="1141.6" width="1788.28" height="25.7282" transform="rotate(-43 339 1141.6)" fill="#F3FF47"/>
<rect x="590" y="1087.6" width="1788.28" height="31.326" transform="rotate(-43 590 1087.6)" fill="url(#paint19_linear_2_2)"/>
<rect x="706" y="1226.6" width="1788.28" height="13.0159" transform="rotate(-43 706 1226.6)" fill="url(#paint20_linear_2_2)"/>
<rect x="887" y="1490.6" width="1788.28" height="13.1796" transform="rotate(-43 887 1490.6)" fill="url(#paint21_linear_2_2)"/>
<rect x="861" y="1463.6" width="1788.28" height="38.9241" transform="rotate(-43 861 1463.6)" fill="url(#paint22_linear_2_2)"/>
<rect x="997" y="1649.6" width="1788.28" height="38.9241" transform="rotate(-43 997 1649.6)" fill="url(#paint23_linear_2_2)"/>
<rect x="778" y="1417.6" width="1788.28" height="38.9241" transform="rotate(-43 778 1417.6)" fill="#2DFFA1"/>
<rect x="-32" y="1090.6" width="1788.28" height="38.9241" transform="rotate(-43 -32 1090.6)" fill="url(#paint24_linear_2_2)"/>
<rect x="-161" y="1090.6" width="1788.28" height="38.9241" transform="rotate(-43 -161 1090.6)" fill="url(#paint25_linear_2_2)"/>
<rect x="-310" y="793.602" width="1788.28" height="38.9241" transform="rotate(-43 -310 793.602)" fill="url(#paint26_linear_2_2)"/>
<rect x="-310" y="793.602" width="1788.28" height="7.06803" transform="rotate(-43 -310 793.602)" fill="#D9D9D9"/>
<rect width="1788.28" height="17.6221" transform="matrix(0.731354 -0.681998 -0.681998 -0.731354 -292.982 785.49)" fill="#E8F80A"/>
<rect width="1788.28" height="17.6221" transform="matrix(0.731354 -0.681998 -0.681998 -0.731354 -271.982 834.49)" fill="#E72424"/>
<rect width="1788.28" height="40.7206" transform="matrix(0.731354 -0.681998 -0.681998 -0.731354 -5.22864 1163.38)" fill="url(#paint27_linear_2_2)"/>
<rect width="1788.28" height="17.6221" transform="matrix(0.731354 -0.681998 -0.681998 -0.731354 275.018 1091.49)" fill="#F21C1C"/>
<rect width="1788.28" height="25.4764" transform="matrix(0.731354 -0.681998 -0.681998 -0.731354 778.375 1208.23)" fill="url(#paint28_linear_2_2)"/>
<rect width="1788.28" height="17.6221" transform="matrix(0.731354 -0.681998 -0.681998 -0.731354 799.018 1397.49)" fill="url(#paint29_linear_2_2)"/>
<rect width="1788.28" height="17.6221" transform="matrix(0.731354 -0.681998 -0.681998 -0.731354 775.018 1312.49)" fill="url(#paint30_linear_2_2)"/>
<rect width="1788.28" height="17.6221" transform="matrix(0.731354 -0.681998 -0.681998 -0.731354 1016.02 1624.49)" fill="url(#paint31_linear_2_2)"/>
<rect width="1788.28" height="46.3436" transform="matrix(0.731354 -0.681998 -0.681998 -0.731354 1023.61 1583.5)" fill="#E70CB8"/>
<rect width="1788.28" height="31.204" transform="matrix(0.731354 -0.681998 -0.681998 -0.731354 987.281 1549.42)" fill="#F2FF41"/>
<rect width="1788.28" height="31.204" transform="matrix(0.731354 -0.681998 -0.681998 -0.731354 977.281 1473.42)" fill="url(#paint32_linear_2_2)"/>
<rect width="1788.28" height="46.3436" transform="matrix(0.731354 -0.681998 -0.681998 -0.731354 860.606 1463.5)" fill="url(#paint33_linear_2_2)"/>
<rect width="1788.28" height="46.3436" transform="matrix(0.731354 -0.681998 -0.681998 -0.731354 1014.61 1926.5)" fill="white"/>
<rect width="1788.28" height="28.155" transform="matrix(0.731354 -0.681998 -0.681998 -0.731354 977.202 1773.19)" fill="url(#paint34_radial_2_2)"/>
<rect width="1788.28" height="28.155" transform="matrix(0.731354 -0.681998 -0.681998 -0.731354 819.202 1665.19)" fill="url(#paint35_radial_2_2)"/>
<rect width="1788.28" height="15.2232" transform="matrix(0.731354 -0.681998 -0.681998 -0.731354 989.382 1878.74)" fill="url(#paint36_radial_2_2)"/>
<rect width="1788.28" height="67.5169" transform="matrix(0.731354 -0.681998 -0.681998 -0.731354 991.931 1819.61)" fill="#22F248"/>
<rect width="1788.28" height="21.8929" transform="matrix(0.731354 -0.681998 -0.681998 -0.731354 995.931 1835.61)" fill="url(#paint37_radial_2_2)"/>
<rect width="1788.28" height="21.8929" transform="matrix(0.731354 -0.681998 -0.681998 -0.731354 991.931 1794.61)" fill="url(#paint38_radial_2_2)"/>
<rect x="-521" y="907.602" width="1788.28" height="57.6893" transform="rotate(-43 -521 907.602)" fill="url(#paint39_radial_2_2)"/>
<rect x="-677" y="634.602" width="1788.28" height="57.6893" transform="rotate(-43 -677 634.602)" fill="url(#paint40_radial_2_2)"/>
</g>
<defs>
<linearGradient id="paint0_linear_2_2" x1="-134" y1="1022.1" x2="1450.1" y2="1022.1" gradientUnits="userSpaceOnUse">
<stop stop-color="#E3FD3C"/>
<stop offset="1" stop-color="#879724"/>
</linearGradient>
<linearGradient id="paint1_linear_2_2" x1="-144" y1="995.1" x2="1440.1" y2="995.1" gradientUnits="userSpaceOnUse">
<stop stop-color="#F2FF41"/>
<stop offset="0.0961538" stop-color="#E8F80A"/>
<stop offset="0.288462" stop-color="#F3FF47"/>
<stop offset="1" stop-color="#919927"/>
</linearGradient>
<linearGradient id="paint2_linear_2_2" x1="74" y1="1120.35" x2="1862.28" y2="1120.35" gradientUnits="userSpaceOnUse">
<stop stop-color="#CEEB0C"/>
<stop offset="0.0528846" stop-color="#DEF73B"/>
<stop offset="1" stop-color="#879724"/>
</linearGradient>
<linearGradient id="paint3_linear_2_2" x1="426" y1="1201.35" x2="2214.28" y2="1201.35" gradientUnits="userSpaceOnUse">
<stop stop-color="#37FA54"/>
<stop offset="1" stop-color="#96AD00"/>
</linearGradient>
<linearGradient id="paint4_linear_2_2" x1="415" y1="1130.45" x2="2203.28" y2="1130.45" gradientUnits="userSpaceOnUse">
<stop stop-color="#0969F0"/>
<stop offset="1" stop-color="#053D8A"/>
</linearGradient>
<linearGradient id="paint5_linear_2_2" x1="761" y1="1359.45" x2="2549.28" y2="1359.45" gradientUnits="userSpaceOnUse">
<stop stop-color="#E3FD3C"/>
<stop offset="0.153846" stop-color="#EDFF77"/>
<stop offset="1" stop-color="#879724"/>
</linearGradient>
<linearGradient id="paint6_linear_2_2" x1="642" y1="1233.45" x2="2430.28" y2="1233.45" gradientUnits="userSpaceOnUse">
<stop stop-color="#F241FF"/>
<stop offset="0.0769231" stop-color="#A53EAD"/>
<stop offset="1" stop-color="#912799"/>
</linearGradient>
<linearGradient id="paint7_linear_2_2" x1="1788.28" y1="8.23931" x2="0" y2="8.23931" gradientUnits="userSpaceOnUse">
<stop stop-color="#E6FC23"/>
<stop offset="0.269231" stop-color="#CDE01F"/>
<stop offset="0.384615" stop-color="#C2D51D"/>
<stop offset="0.451923" stop-color="#BCCE1C"/>
<stop offset="1" stop-color="#899615"/>
</linearGradient>
<linearGradient id="paint8_linear_2_2" x1="278" y1="1151.91" x2="2066.28" y2="1151.91" gradientUnits="userSpaceOnUse">
<stop stop-color="#FC86E2"/>
<stop offset="0.0384615" stop-color="#F884DF"/>
<stop offset="0.0817308" stop-color="#E70CB8"/>
<stop offset="0.350962" stop-color="#D873C2"/>
<stop offset="1" stop-color="#965087"/>
</linearGradient>
<linearGradient id="paint9_linear_2_2" x1="631" y1="1118.91" x2="2419.28" y2="1118.91" gradientUnits="userSpaceOnUse">
<stop stop-color="#54FF68"/>
<stop offset="1" stop-color="#33993F"/>
</linearGradient>
<linearGradient id="paint10_linear_2_2" x1="282" y1="1100.7" x2="2070.28" y2="1100.7" gradientUnits="userSpaceOnUse">
<stop stop-color="#E3FD3C"/>
<stop offset="0.0865385" stop-color="#DBF43A"/>
<stop offset="0.144231" stop-color="#D6EE39"/>
<stop offset="1" stop-color="#879724"/>
</linearGradient>
<linearGradient id="paint11_linear_2_2" x1="-62" y1="1075.46" x2="1726.28" y2="1075.46" gradientUnits="userSpaceOnUse">
<stop stop-color="#2DFFA1"/>
<stop offset="1" stop-color="#1B9960"/>
</linearGradient>
<linearGradient id="paint12_linear_2_2" x1="-610" y1="862.036" x2="1178.28" y2="862.036" gradientUnits="userSpaceOnUse">
<stop stop-color="#E8F80A"/>
<stop offset="0.538462" stop-color="#FAFFB1"/>
<stop offset="1" stop-color="#CFDB2D"/>
</linearGradient>
<linearGradient id="paint13_linear_2_2" x1="-610" y1="740.203" x2="1178.28" y2="740.203" gradientUnits="userSpaceOnUse">
<stop stop-color="#295396"/>
<stop offset="1" stop-color="#0D1A30"/>
</linearGradient>
<radialGradient id="paint14_radial_2_2" cx="0" cy="0" r="1" gradientUnits="userSpaceOnUse" gradientTransform="translate(180.191 758.512) scale(894.138 10.9986)">
<stop stop-color="#FBC2F4"/>
<stop offset="1" stop-color="#957391"/>
</radialGradient>
<linearGradient id="paint15_linear_2_2" x1="-570" y1="914.036" x2="1218.28" y2="914.036" gradientUnits="userSpaceOnUse">
<stop stop-color="#F241FF"/>
<stop offset="1" stop-color="#912799"/>
</linearGradient>
<linearGradient id="paint16_linear_2_2" x1="-366" y1="1128.04" x2="1422.28" y2="1128.04" gradientUnits="userSpaceOnUse">
<stop offset="0.0576923" stop-color="#EEFF81"/>
<stop offset="1" stop-color="#879724"/>
</linearGradient>
<linearGradient id="paint17_linear_2_2" x1="-385" y1="1064.04" x2="1403.28" y2="1064.04" gradientUnits="userSpaceOnUse">
<stop stop-color="#36F13F"/>
<stop offset="1" stop-color="#1F8B24"/>
</linearGradient>
<linearGradient id="paint18_linear_2_2" x1="94" y1="1177.42" x2="1882.28" y2="1177.42" gradientUnits="userSpaceOnUse">
<stop stop-color="#F241FF"/>
<stop offset="0.192308" stop-color="#E03CEB"/>
<stop offset="1" stop-color="#912799"/>
</linearGradient>
<linearGradient id="paint19_linear_2_2" x1="590" y1="1103.26" x2="2378.28" y2="1103.26" gradientUnits="userSpaceOnUse">
<stop stop-color="#E03CEB"/>
<stop offset="0.115385" stop-color="#D439E0"/>
<stop offset="0.365385" stop-color="#BC32C6"/>
<stop offset="1" stop-color="#7F2285"/>
</linearGradient>
<linearGradient id="paint20_linear_2_2" x1="706" y1="1233.11" x2="2494.28" y2="1233.11" gradientUnits="userSpaceOnUse">
<stop stop-color="white"/>
<stop offset="0.110577" stop-color="#E0E0E0"/>
<stop offset="0.302885" stop-color="#D1D1D1"/>
<stop offset="1" stop-color="#999999"/>
</linearGradient>
<linearGradient id="paint21_linear_2_2" x1="887" y1="1497.19" x2="2675.28" y2="1497.19" gradientUnits="userSpaceOnUse">
<stop stop-color="#F241FF"/>
<stop offset="1" stop-color="#912799"/>
</linearGradient>
<linearGradient id="paint22_linear_2_2" x1="861" y1="1483.06" x2="2649.28" y2="1483.06" gradientUnits="userSpaceOnUse">
<stop stop-color="#36F13F"/>
<stop offset="1" stop-color="#1F8B24"/>
</linearGradient>
<linearGradient id="paint23_linear_2_2" x1="997" y1="1669.06" x2="2785.28" y2="1669.06" gradientUnits="userSpaceOnUse">
<stop stop-color="#0969F0"/>
<stop offset="1" stop-color="#053D8A"/>
</linearGradient>
<linearGradient id="paint24_linear_2_2" x1="-32" y1="1110.06" x2="1756.28" y2="1110.06" gradientUnits="userSpaceOnUse">
<stop stop-color="#D7F31E"/>
<stop offset="0.216346" stop-color="#C3DD1B"/>
<stop offset="1" stop-color="#7D8D11"/>
</linearGradient>
<linearGradient id="paint25_linear_2_2" x1="-161" y1="1110.06" x2="1627.28" y2="1110.06" gradientUnits="userSpaceOnUse">
<stop stop-color="#22F248"/>
<stop offset="0.1875" stop-color="#1FDF42"/>
<stop offset="1" stop-color="#138C29"/>
</linearGradient>
<linearGradient id="paint26_linear_2_2" x1="-310" y1="813.064" x2="1478.28" y2="813.064" gradientUnits="userSpaceOnUse">
<stop stop-color="#E6FC23"/>
<stop offset="1" stop-color="#899615"/>
</linearGradient>
<linearGradient id="paint27_linear_2_2" x1="1788.28" y1="20.3603" x2="0" y2="20.3603" gradientUnits="userSpaceOnUse">
<stop stop-color="#F2FF41"/>
<stop offset="1" stop-color="#919927"/>
</linearGradient>
<linearGradient id="paint28_linear_2_2" x1="1788.28" y1="12.7382" x2="0" y2="12.7382" gradientUnits="userSpaceOnUse">
<stop stop-color="#458BFC"/>
<stop offset="1" stop-color="#295396"/>
</linearGradient>
<linearGradient id="paint29_linear_2_2" x1="1788.28" y1="8.81106" x2="0" y2="8.81106" gradientUnits="userSpaceOnUse">
<stop stop-color="#E8F80A"/>
<stop offset="0.163462" stop-color="#D9E70A"/>
<stop offset="0.442308" stop-color="#BECB09"/>
<stop offset="0.586538" stop-color="#B0BC08"/>
<stop offset="1" stop-color="#899206"/>
</linearGradient>
<linearGradient id="paint30_linear_2_2" x1="1788.28" y1="8.81106" x2="0" y2="8.81106" gradientUnits="userSpaceOnUse">
<stop stop-color="#2DFFA1"/>
<stop offset="1" stop-color="#1B9960"/>
</linearGradient>
<linearGradient id="paint31_linear_2_2" x1="1788.28" y1="8.81106" x2="0" y2="8.81106" gradientUnits="userSpaceOnUse">
<stop stop-color="#458BFC"/>
<stop offset="1" stop-color="#295396"/>
</linearGradient>
<linearGradient id="paint32_linear_2_2" x1="1788.28" y1="15.602" x2="0" y2="15.602" gradientUnits="userSpaceOnUse">
<stop stop-color="#E81515"/>
<stop offset="1" stop-color="#820C0C"/>
</linearGradient>
<linearGradient id="paint33_linear_2_2" x1="1788.28" y1="23.1718" x2="0" y2="23.1718" gradientUnits="userSpaceOnUse">
<stop stop-color="#D439E0"/>
<stop offset="0.0961538" stop-color="#CB36D6"/>
<stop offset="0.384615" stop-color="#A12BA9"/>
<stop offset="0.576923" stop-color="#84238B"/>
<stop offset="1" stop-color="#741F7A"/>
</linearGradient>
<radialGradient id="paint34_radial_2_2" cx="0" cy="0" r="1" gradientUnits="userSpaceOnUse" gradientTransform="translate(894.138 14.0775) rotate(-180) scale(894.138 14.0775)">
<stop stop-color="#F241FF"/>
<stop offset="1" stop-color="#912799"/>
</radialGradient>
<radialGradient id="paint35_radial_2_2" cx="0" cy="0" r="1" gradientUnits="userSpaceOnUse" gradientTransform="translate(894.138 14.0775) rotate(-180) scale(894.138 14.0775)">
<stop stop-color="#2DFFA1"/>
<stop offset="1" stop-color="#1B9960"/>
</radialGradient>
<radialGradient id="paint36_radial_2_2" cx="0" cy="0" r="1" gradientUnits="userSpaceOnUse" gradientTransform="translate(894.138 7.6116) rotate(-180) scale(894.138 7.6116)">
<stop stop-color="#3CBBCF"/>
<stop offset="1" stop-color="#1E5F69"/>
</radialGradient>
<radialGradient id="paint37_radial_2_2" cx="0" cy="0" r="1" gradientUnits="userSpaceOnUse" gradientTransform="translate(894.138 10.9464) rotate(-180) scale(894.138 10.9464)">
<stop stop-color="#6291DD"/>
<stop offset="1" stop-color="#354E77"/>
</radialGradient>
<radialGradient id="paint38_radial_2_2" cx="0" cy="0" r="1" gradientUnits="userSpaceOnUse" gradientTransform="translate(894.138 10.9464) rotate(-180) scale(894.138 10.9464)">
<stop stop-color="#53D8DC"/>
<stop offset="1" stop-color="#2D7476"/>
</radialGradient>
<radialGradient id="paint39_radial_2_2" cx="0" cy="0" r="1" gradientUnits="userSpaceOnUse" gradientTransform="translate(373.138 936.446) scale(894.138 28.8446)">
<stop stop-color="#75CE7F"/>
<stop offset="1" stop-color="#3B6840"/>
</radialGradient>
<radialGradient id="paint40_radial_2_2" cx="0" cy="0" r="1" gradientUnits="userSpaceOnUse" gradientTransform="translate(217.138 663.446) scale(894.138 28.8446)">
<stop stop-color="#C8420C"/>
<stop offset="0.134615" stop-color="#BA3D0B"/>
<stop offset="1" stop-color="#622006"/>
</radialGradient>
<clipPath id="clip0_2_2">
<rect width="1919" height="1079" fill="white"/>
</clipPath>
</defs>
</svg>
